# xmcd
#
# Track frame offsets:
# 150
# 12333
# 24544
# 49386
# 63952
# 78396
# 100226
# 113891
# 127698
# 144108
# 155730
#
# Disc length: 2301 seconds
#
#
# Revision: 0
# Processed by: cddbd v1.5.2PL0 Copyright (c) Steve Scherf et al.
# Submitted via: FreeRIP 2.96 
#
DISCID=8708fb0b
DTITLE=ernest ray everett - not for sale
DYEAR=2006
DGENRE=Country
TTITLE0=call the cops
TTITLE1=back to memphis
TTITLE2=break me
TTITLE3=a handshake I will do
TTITLE4=we are having a ball
TTITLE5=no deposit no return
TTITLE6=my julie
TTITLE7=explain it to me slowly
TTITLE8=biggest fool in town
TTITLE9=Im your puppet
TTITLE10=not for sale
EXTD=
EXTT0=
EXTT1=
EXTT2=
EXTT3=
EXTT4=
EXTT5=
EXTT6=
EXTT7=
EXTT8=
EXTT9=
EXTT10=
PLAYORDER=
